<svg width="18" height="18" viewBox="0 0 18 18" class="icon-link" fill="none" xmlns="http://www.w3.org/2000/svg">
  <path d="M10.2864 7.71403C9.60384 7.03173 8.67822 6.64844 7.7131 6.64844C6.74797 6.64844 5.82235 7.03173 5.13976 7.71403L2.56559 10.2874C1.88299 10.97 1.49951 11.8958 1.49951 12.8611C1.49951 13.8265 1.88299 14.7523 2.56559 15.4349C3.24819 16.1175 4.174 16.501 5.13934 16.501C6.10469 16.501 7.03049 16.1175 7.7131 15.4349L8.99976 14.1482" stroke="#ffffff" stroke-width="2" stroke-linecap="round" stroke-linejoin="round"></path>
  <path d="M7.71289 10.2869C8.39548 10.9692 9.3211 11.3525 10.2862 11.3525C11.2513 11.3525 12.177 10.9692 12.8596 10.2869L15.4337 7.71358C16.1163 7.03098 16.4998 6.10518 16.4998 5.13983C16.4998 4.17449 16.1163 3.24868 15.4337 2.56608C14.7511 1.88348 13.8253 1.5 12.86 1.5C11.8946 1.5 10.9688 1.88348 10.2862 2.56608L8.99956 3.85275" stroke="#ffffff" stroke-width="2" stroke-linecap="round" stroke-linejoin="round"></path>
</svg>

