<svg class="icon-mouse" enable-background="new 0 0 24 31" viewBox="0 0 24 31" xmlns="http://www.w3.org/2000/svg">
  <g fill="none" stroke="#fff">
    <path d="m12.2 24.7c-1.6 0-3.2-.7-4.4-2s-1.8-3-1.8-4.8v-5.4c0-1.8.7-3.5 1.8-4.8s2.7-2 4.4-2 3.2.7 4.4 2 1.8 3 1.8 4.8v5.4c0 .9-.2 1.8-.5 2.6s-.8 1.6-1.3 2.2c-.6.6-1.3 1.1-2 1.5-.8.3-1.6.5-2.4.5z"></path>
  </g>
  <path class="icon-mouse-scroll-1" d="M12.2,6v10V6z" stroke="#fff" stroke-width="1.75" stroke-linecap="round" stroke-dasharray=".1 40"></path>
  <path class="icon-mouse-scroll-2" d="M12.2,6v10V6z" stroke="#fff" stroke-width="1.75" stroke-linecap="round" stroke-dasharray=".1 40" stroke-dashoffset="-5"></path>
  <path class="icon-mouse-scroll-3" d="M12.2,6v10V6z" stroke="#fff" stroke-width="1.75" stroke-linecap="round" stroke-dasharray=".1 40" stroke-dashoffset="-10"></path>
</svg>

