<svg width="218" height="218" viewBox="0 0 218 218" fill="none" xmlns="http://www.w3.org/2000/svg">
  <path d="M107.278 216.745L34.0301 186.405C32.9275 185.949 32.0515 185.072 31.5947 183.97L1.2545 110.722C0.797769 109.619 0.79777 108.381 1.2545 107.278L31.5947 34.0301C32.0515 32.9275 32.9275 32.0515 34.0301 31.5947L107.278 1.25451C108.381 0.797781 109.619 0.797781 110.722 1.25451L183.97 31.5948C185.073 32.0515 185.949 32.9275 186.405 34.0301L216.746 107.278C217.202 108.381 217.202 109.619 216.746 110.722L186.405 183.97C185.949 185.073 185.073 185.949 183.97 186.405L110.722 216.745C109.619 217.202 108.381 217.202 107.278 216.745Z" stroke="white" vector-effect="non-scaling-stroke" stroke-linejoin="round"></path>
</svg>

