<svg width="577" height="459" viewBox="0 0 577 459" fill="none" xmlns="http://www.w3.org/2000/svg">
<g transform="translate(228.28729, 239.406853)"><path d="M3 6.49219L5.59808 4.99219V1.99219L3 0.492188L0.401924 1.99219V4.99219L3 6.49219Z" fill="white"></path></g>
<g transform="translate(247.711368, 160.716764)"><path d="M3 6.49219L5.59808 4.99219V1.99219L3 0.492188L0.401924 1.99219V4.99219L3 6.49219Z" fill="white"></path></g>
<g transform="translate(343.12, 163.54361)"><path d="M3 6.49219L5.59808 4.99219V1.99219L3 0.492188L0.401924 1.99219V4.99219L3 6.49219Z" fill="white"></path></g>
<g transform="translate(341.506693, 251.842403)"><path d="M3 6.49219L5.59808 4.99219V1.99219L3 0.492188L0.401924 1.99219V4.99219L3 6.49219Z" fill="white"></path></g>
<g transform="translate(270.830968, 370.950155)"><path d="M3 6.49219L5.59808 4.99219V1.99219L3 0.492188L0.401924 1.99219V4.99219L3 6.49219Z" fill="white"></path></g>
</svg>

