<svg width="120" height="80" viewBox="0 0 120 80" fill="none" xmlns="http://www.w3.org/2000/svg">
  <path d="M83.3659 74.04V74.144C83.3659 74.696 83.2299 75.184 82.9499 75.608C82.8939 75.696 82.8139 75.792 82.7019 75.896C82.5819 76.008 82.5099 76.064 82.4859 76.064H82.4779C82.4699 76.056 82.4619 75.672 82.4619 74.92V73.776L82.0619 73.784H81.6619V74.944C81.6619 75.712 81.6619 76.096 81.6539 76.096C81.6219 76.096 81.4459 75.968 81.3499 75.864C81.1259 75.64 80.9579 75.344 80.8459 74.976C80.7739 74.744 80.7419 74.48 80.7339 74.168L80.7259 73.816L80.3899 73.784C80.1899 73.76 80.0539 73.744 79.9899 73.744H79.9259L79.9179 73.952C79.9179 73.984 79.9099 74.096 79.9099 74.128C79.9099 74.712 80.0379 75.248 80.2939 75.752C80.4299 76.016 80.5979 76.256 80.8059 76.464L80.9819 76.64L80.8219 76.808C80.3899 77.256 80.1179 77.864 79.9979 78.632C79.9739 78.8 79.9659 79.016 79.9659 79.272C79.9659 79.44 79.9739 79.528 79.9819 79.536H79.9979C80.0699 79.536 80.3259 79.512 80.7659 79.472C80.7739 79.472 80.7739 79.384 80.7739 79.2C80.7739 78.392 81.0059 77.76 81.4619 77.32C81.5659 77.232 81.6139 77.184 81.6219 77.184C81.6459 77.184 81.6619 77.432 81.6699 77.928C81.6779 78.208 81.6779 78.608 81.6779 79.12V79.544H81.8459C81.9419 79.544 82.0779 79.536 82.2459 79.528L82.4859 79.52V78.344C82.4859 77.576 82.4939 77.192 82.5099 77.192H82.5179C82.5739 77.224 82.6619 77.296 82.7659 77.416C82.8699 77.536 82.9499 77.64 83.0059 77.728C83.2379 78.136 83.3579 78.608 83.3659 79.152V79.52L83.7499 79.56C83.9179 79.576 84.0299 79.584 84.0859 79.584C84.1259 79.584 84.1499 79.584 84.1579 79.576C84.1739 79.56 84.1819 79.432 84.1819 79.2C84.1819 78.184 83.8939 77.384 83.3099 76.8L83.1259 76.624L83.2939 76.448C83.4699 76.272 83.6059 76.112 83.6939 75.96C84.0139 75.432 84.1739 74.816 84.1739 74.12V73.792H84.1099C83.9179 73.792 83.6699 73.816 83.3579 73.864L83.3659 74.04ZM93.8431 75C94.1231 75.128 94.3951 75.392 94.6591 75.8C94.9711 76.272 95.1231 76.752 95.1231 77.224C95.1231 77.408 95.0991 77.584 95.0511 77.752C94.8511 78.448 94.2831 78.92 93.6751 78.92C93.5631 78.92 93.4351 78.896 93.2991 78.856C92.9231 78.728 92.5871 78.4 92.4031 78.008C92.2991 77.776 92.2431 77.528 92.2431 77.264C92.2431 76.856 92.3551 76.464 92.5871 76.08C92.8111 75.696 93.0591 75.392 93.3391 75.168C93.5071 75.032 93.6271 74.968 93.7151 74.968C93.7471 74.968 93.7871 74.976 93.8431 75ZM92.1311 74.232C92.1311 74.264 92.2031 74.296 92.3551 74.328C92.6831 74.4 92.8511 74.44 92.8751 74.464L92.6991 74.648C91.9951 75.32 91.5791 76.072 91.4591 76.896C91.4511 76.96 91.4431 77.072 91.4431 77.24C91.4431 77.472 91.4591 77.656 91.4831 77.776C91.5871 78.264 91.8031 78.68 92.1311 79.024C92.5791 79.496 93.0991 79.728 93.6991 79.728C94.2591 79.728 94.7551 79.512 95.1791 79.088C95.5231 78.744 95.7551 78.304 95.8751 77.776C95.9071 77.64 95.9231 77.44 95.9231 77.176C95.9231 77.072 95.9151 76.968 95.9071 76.864C95.8671 76.488 95.7391 76.096 95.5311 75.696C95.3151 75.296 95.0671 74.96 94.7711 74.68L94.5471 74.464L94.7311 74.408C94.8271 74.376 94.9551 74.344 95.1151 74.312L95.3151 74.28C95.2911 74.144 95.2751 74.008 95.2591 73.872C95.2511 73.824 95.2431 73.76 95.2351 73.688C95.2271 73.552 95.2031 73.488 95.1791 73.488C95.1711 73.488 95.1391 73.496 95.1151 73.496C94.7471 73.536 94.3631 73.648 93.9711 73.824C93.8671 73.872 93.8031 73.904 93.7631 73.912C93.7551 73.92 93.7791 73.944 93.4991 73.84C93.1391 73.68 92.7791 73.568 92.4191 73.512C92.2831 73.48 92.2351 73.48 92.2191 73.488C92.2111 73.496 92.2111 73.496 92.2111 73.504C92.2111 73.512 92.1951 73.632 92.1711 73.864C92.1471 74.096 92.1311 74.224 92.1311 74.232ZM105.443 75.872C105.427 75.872 105.163 75.496 104.643 74.736C104.123 73.976 103.859 73.6 103.835 73.6C103.819 73.6 103.707 73.672 103.499 73.816C103.291 73.96 103.187 74.032 103.187 74.04L104.067 75.288C104.651 76.12 104.939 76.56 104.939 76.6C104.939 76.616 104.659 77.048 104.091 77.888C103.963 78.072 103.827 78.28 103.675 78.504C103.523 78.736 103.403 78.904 103.331 79.016L103.219 79.176C103.211 79.184 103.323 79.272 103.539 79.424C103.755 79.576 103.867 79.648 103.875 79.64L104.395 78.888C104.491 78.752 104.635 78.544 104.819 78.264C105.003 77.984 105.123 77.816 105.171 77.744C105.347 77.48 105.443 77.352 105.451 77.352C105.459 77.352 105.715 77.728 106.235 78.488C106.755 79.248 107.019 79.624 107.035 79.624C107.051 79.624 107.163 79.552 107.379 79.416C107.587 79.28 107.699 79.2 107.707 79.192L106.059 76.784L105.931 76.608L106.803 75.328C107.387 74.472 107.675 74.04 107.675 74.032L107.539 73.92C107.371 73.768 107.107 73.584 107.035 73.584C107.027 73.584 106.891 73.776 106.627 74.152L105.835 75.304L105.443 75.872ZM116.225 76.784C115.929 77.016 115.769 77.136 115.753 77.144C115.745 77.144 115.745 76.936 115.745 76.528C115.745 76.112 115.745 75.904 115.753 75.904C115.761 75.904 115.913 75.992 116.217 76.16C116.513 76.336 116.665 76.424 116.665 76.432C116.665 76.44 116.521 76.552 116.225 76.784ZM117.297 75.848C117.033 75.696 116.649 75.472 116.129 75.176C115.609 74.88 115.217 74.664 114.953 74.512L114.945 75.584V77.728L114.953 78.8L115.265 78.552C116.609 77.504 117.289 76.976 117.297 76.976C117.305 76.976 117.305 77.4 117.305 78.256V79.544H118.105L118.113 77.92V74.968L118.105 73.64H117.305V74.744L117.297 75.848Z" fill="#2DF872"/>
</svg>


